<svg version="1.1" xmlns="http://www.w3.org/2000/svg" style="display: block;" viewBox="90 90 1866 1866" width="1024" height="1024" preserveAspectRatio="none">
<defs>
	<linearGradient id="Gradient1" gradientUnits="userSpaceOnUse" x1="1373.91" y1="1463.72" x2="1466.71" y2="486.264">
		<stop class="stop0" offset="0" stop-opacity="1" stop-color="rgb(19,72,200)"/>
		<stop class="stop1" offset="1" stop-opacity="1" stop-color="rgb(61,133,242)"/>
	</linearGradient>
	<linearGradient id="Gradient2" gradientUnits="userSpaceOnUse" x1="1497.86" y1="1572.82" x2="805.494" y2="810.715">
		<stop class="stop0" offset="0" stop-opacity="1" stop-color="rgb(37,110,236)"/>
		<stop class="stop1" offset="1" stop-opacity="1" stop-color="rgb(104,209,251)"/>
	</linearGradient>
	<linearGradient id="Gradient3" gradientUnits="userSpaceOnUse" x1="1582.65" y1="1987.22" x2="463.812" y2="58.6095">
		<stop class="stop0" offset="0" stop-opacity="1" stop-color="rgb(138,170,233)"/>
		<stop class="stop1" offset="1" stop-opacity="1" stop-color="rgb(200,226,248)"/>
	</linearGradient>
</defs>
<path transform="translate(0,0)" fill="url(#Gradient3)" d="M 747.988 95.6383 C 751.492 96.2408 787.231 95.8824 792.256 95.8775 L 903.729 95.7919 L 1322.23 95.7579 L 1463.32 95.7422 C 1527.1 95.7773 1576.97 92.6944 1640.02 108.91 C 1792.54 148.139 1908.24 263.853 1941.95 418.438 C 1950.09 455.747 1950.84 481.98 1950.95 519.755 L 1951.08 596.403 L 1951.06 799.418 L 1950.99 1532.81 C 1950.98 1545.74 1951.35 1562.43 1950.27 1575.01 C 1941.12 1674.03 1897.15 1766.6 1826.17 1836.25 C 1755.69 1906.44 1645.65 1949.48 1546.54 1950.99 C 1541.16 1951.07 1535.72 1951.06 1530.33 1951.09 L 1461.99 1951.31 L 1301.5 1951.19 L 738.97 1951.33 L 580.538 1951.45 C 532.009 1951.43 469.511 1953 422.719 1942.67 C 344.812 1926.24 273.252 1887.81 216.524 1831.94 C 152.599 1768.77 109.901 1677.55 98.4059 1588.6 C 96.1848 1571.42 96.4803 1549.7 96.3773 1531.99 L 96.1747 809.007 L 95.8957 604.215 C 95.8429 540.168 91.8139 472.936 106.629 410.353 C 144.931 248.558 281.73 125.327 445.388 99.5273 C 483.396 93.5355 526.912 95.7265 565.684 95.7365 L 747.988 95.6383 z"/>
<path transform="translate(0,0)" fill="rgb(45,106,221)" d="M 464.245 576.682 C 476.199 529.395 513.257 492.415 563.481 487.012 C 594.071 483.721 629.84 485.431 660.972 485.515 L 821.059 485.324 C 828.577 493.278 839.695 509.253 846.776 518.648 L 889.427 574.59 L 969.196 680.493 C 981.357 696.614 999.837 718.968 1010.38 734.856 C 1013.56 742.939 1020.99 749.661 1023.11 755.243 C 1021.17 755.088 1017.24 754.637 1015.54 754.621 C 1000.24 754.465 984.535 755.383 969.203 755.978 C 919.928 757.89 873.533 749.846 833.047 784.345 C 791.132 820.06 790.614 863.546 791.538 914.52 C 791.835 930.859 791.153 948.006 791.472 964.431 C 791.402 972.345 793.122 1002.24 791.927 1007.75 L 791.832 1021.52 C 792.671 1039.7 791.966 1063.67 791.959 1082.16 L 791.96 1199.95 L 791.96 1561.67 C 728.236 1560.29 664.093 1561.38 600.339 1561.23 C 584.402 1561.2 569.553 1561.96 553.757 1558.68 C 523.375 1552.52 496.779 1534.32 480.017 1508.24 C 456.243 1471.28 461.25 1434.53 461.303 1392.76 L 461.325 1283.83 L 461.288 937.014 L 461.234 703.972 L 461.058 639.249 C 461.005 618.961 459.985 596.287 464.245 576.682 z"/>
<path transform="translate(0,0)" fill="rgb(63,141,238)" d="M 464.245 576.682 C 476.199 529.395 513.257 492.415 563.481 487.012 C 594.071 483.721 629.84 485.431 660.972 485.515 L 821.059 485.324 C 828.577 493.278 839.695 509.253 846.776 518.648 L 889.427 574.59 L 969.196 680.493 C 981.357 696.614 999.837 718.968 1010.38 734.856 C 1013.56 742.939 1020.99 749.661 1023.11 755.243 C 1021.17 755.088 1017.24 754.637 1015.54 754.621 C 1000.24 754.465 984.535 755.383 969.203 755.978 C 919.928 757.89 873.533 749.846 833.047 784.345 C 791.132 820.06 790.614 863.546 791.538 914.52 C 791.835 930.859 791.153 948.006 791.472 964.431 C 791.402 972.345 793.122 1002.24 791.927 1007.75 L 791.832 1021.52 C 791.11 1017.33 791.092 1009.68 790.946 1005.18 C 785.328 996.406 773.787 982.58 766.916 973.639 L 719.403 911.886 L 586.573 737.504 L 504.961 629.917 C 495 616.691 474.726 587.53 464.245 576.682 z"/>
<path transform="translate(0,0)" fill="url(#Gradient2)" d="M 1010.38 734.856 C 1029.67 757.094 1054 791.741 1072.54 816.05 L 1199.87 982.828 L 1237.98 1033.12 C 1241.66 1037.9 1251.79 1051.53 1255.86 1055.18 C 1257.84 1060.91 1311.59 1130.34 1318.59 1139.63 L 1492.25 1372.06 L 1555.2 1456.82 C 1561.09 1464.92 1573.26 1480.16 1578.11 1488.04 C 1572.07 1501.72 1564.27 1514.51 1553.78 1525.22 C 1538.04 1541.51 1517.88 1552.84 1495.79 1557.83 C 1471.91 1563.36 1413.75 1561.41 1386.41 1561.4 C 1329.88 1561.29 1273.35 1561.52 1216.82 1562.08 C 1206.28 1550.05 1193.63 1532.51 1183.78 1519.59 L 1121.86 1438.54 L 898.402 1146.48 C 879.901 1121.96 861.738 1098.01 842.806 1073.8 C 826.096 1052.44 810.134 1028.11 791.927 1007.75 C 793.122 1002.24 791.402 972.345 791.472 964.431 C 791.153 948.006 791.835 930.859 791.538 914.52 C 790.614 863.546 791.132 820.06 833.047 784.345 C 873.533 749.846 919.928 757.89 969.203 755.978 C 984.535 755.383 1000.24 754.465 1015.54 754.621 C 1017.24 754.637 1021.17 755.088 1023.11 755.243 C 1020.99 749.661 1013.56 742.939 1010.38 734.856 z"/>
<path transform="translate(0,0)" fill="url(#Gradient1)" d="M 1256.01 485.396 C 1307.57 487.235 1359.94 484.795 1411.55 485.662 C 1439.3 486.128 1473.68 483.253 1500.3 489.713 C 1543.11 500.101 1578.8 538.781 1584.62 582.541 C 1586.65 598.132 1586.16 614.43 1586.14 630.119 L 1586.05 693.971 L 1586.11 905.561 L 1586.11 1266.56 L 1586.06 1385.84 C 1586.05 1406.6 1586.66 1431.29 1585.69 1451.57 C 1585.22 1464.06 1582.66 1476.39 1578.11 1488.04 C 1573.26 1480.16 1561.09 1464.92 1555.2 1456.82 L 1492.25 1372.06 L 1318.59 1139.63 C 1311.59 1130.34 1257.84 1060.91 1255.86 1055.18 L 1256.01 485.396 z"/>
</svg>